HIERARCHY
ROOT Hips
{
  OFFSET 0 89.5177 0.535
  CHANNELS 6 Xposition Yposition Zposition Zrotation Xrotation Yrotation
  JOINT Spine
  {
    OFFSET 12.0259 -0.162855 1.69034e-005
    CHANNELS 3 Zrotation Xrotation Yrotation
    JOINT Spine1
    {
      OFFSET 15.3169 -0.0121922 0
      CHANNELS 3 Zrotation Xrotation Yrotation
      JOINT Spine2
      {
        OFFSET 15.3176 -0.0121908 0
        CHANNELS 3 Zrotation Xrotation Yrotation
        JOINT Neck
        {
          OFFSET 19.9142 1.56338 0
          CHANNELS 3 Zrotation Xrotation Yrotation
          JOINT Head
          {
            OFFSET 6.92651 0 0
            CHANNELS 3 Zrotation Xrotation Yrotation
            End Site
            {
              OFFSET 20.7666 0 0
            }
          }
          JOINT LeftShoulder
          {
            OFFSET -6.20654 0.708824 7.28219
            CHANNELS 3 Zrotation Xrotation Yrotation
            JOINT LeftArm
            {
              OFFSET 14.108 0 -1.52588e-005
              CHANNELS 3 Zrotation Xrotation Yrotation
              JOINT LeftForeArm
              {
                OFFSET 28.5802 0 0
                CHANNELS 3 Zrotation Xrotation Yrotation
                JOINT LeftHand
                {
                  OFFSET 27.092 0 0
                  CHANNELS 3 Zrotation Xrotation Yrotation
                  End Site
                  {
                    OFFSET 9.55928 -0.186424 0.145352
                  }
                }
              }
            }
          }
          JOINT RightShoulder
          {
            OFFSET -6.20654 0.708866 -7.28218
            CHANNELS 3 Zrotation Xrotation Yrotation
            JOINT RightArm
            {
              OFFSET 14.108 0 1.52588e-005
              CHANNELS 3 Zrotation Xrotation Yrotation
              JOINT RightForeArm
              {
                OFFSET 28.5802 0 0
                CHANNELS 3 Zrotation Xrotation Yrotation
                JOINT RightHand
                {
                  OFFSET 27.092 0 0
                  CHANNELS 3 Zrotation Xrotation Yrotation
                  End Site
                  {
                    OFFSET 9.55929 -0.186417 -0.145354
                  }
                }
              }
            }
          }
        }
      }
    }
  }
  JOINT LeftUpLeg
  {
    OFFSET 0.005 -0.535 8.837
    CHANNELS 3 Zrotation Xrotation Yrotation
    JOINT LeftLeg
    {
      OFFSET 39.9035 0 0
      CHANNELS 3 Zrotation Xrotation Yrotation
      JOINT LeftFoot
      {
        OFFSET 39.6689 0 0
        CHANNELS 3 Zrotation Xrotation Yrotation
        JOINT LeftToe
        {
          OFFSET 10.1624 13.6296 0
          CHANNELS 3 Zrotation Xrotation Yrotation
          End Site
          {
            OFFSET 8.38147 0 0
          }
        }
      }
    }
  }
  JOINT RightUpLeg
  {
    OFFSET 0.005 -0.535 -8.837
    CHANNELS 3 Zrotation Xrotation Yrotation
    JOINT RightLeg
    {
      OFFSET 39.9035 0 0
      CHANNELS 3 Zrotation Xrotation Yrotation
      JOINT RightFoot
      {
        OFFSET 39.6689 0 0
        CHANNELS 3 Zrotation Xrotation Yrotation
        JOINT RightToe
        {
          OFFSET 10.1624 13.6296 0
          CHANNELS 3 Zrotation Xrotation Yrotation
          End Site
          {
            OFFSET 8.38147 0 0
          }
        }
      }
    }
  }
}
MOTION
Frames:	19
Frame Time:	0.0333333
465.176 86.4617 -124.908 49.4628 -79.82 -34.9875 2.02579 -1.15394 -0.875294 4.03497 -2.33749 -1.70962 4.03497 -2.33749 -1.70963 -8.30669e-012 -9.0191e-006 -5.27751e-005 10.8403 -0.829426 -0.301347 -178.04 -12.7999 -81.2182 -2.55397 -51.635 19.8698 -16.4285 -6.36111e-015 -0 -55.8886 -29.9871 -46.4207 -179.871 11.2083 89.3381 58.9955 66.253 -76.9639 -8.77321 -1.59028e-015 -1.59028e-015 -40.0417 26.2494 38.5135 6.45085 4.91029 173.441 -14.1953 0 3.97569e-016 13.0262 6.1583 -12.9874 90 1.36664e-015 7.95139e-016 10.8639 -3.65197 178.836 -5.84006 7.95139e-016 3.97569e-016 13.1519 -3.95302 8.33944 90 1.04362e-015 -1.59028e-015 
465.175 86.4701 -124.833 49.4668 -79.8037 -35.0005 2.02311 -1.15211 -0.861678 4.02992 -2.33332 -1.68251 4.02992 -2.33332 -1.68252 -8.30828e-012 -9.0191e-006 -5.27751e-005 10.8688 -0.807072 -0.303924 -178.051 -12.7205 -81.2167 -2.50264 -51.432 19.9162 -16.5141 1.27222e-014 -0 -55.9437 -30.0356 -46.587 -179.875 11.1783 89.3531 58.9302 66.2559 -76.8212 -8.76647 3.18055e-015 -0 -39.9986 26.21 38.4522 6.38362 4.92415 173.461 -14.2352 4.77083e-015 1.98785e-015 13.0374 6.18464 -13.0438 90 -1.06847e-015 7.95139e-016 10.8361 -3.5614 178.85 -5.81494 -7.95139e-016 1.98785e-016 13.0255 -3.89351 8.21342 90 9.19379e-016 -0 
465.166 86.4765 -124.767 49.4103 -79.7799 -35.0522 2.0241 -1.15335 -0.853458 4.03203 -2.33918 -1.66594 4.03202 -2.33918 -1.66594 -8.30748e-012 -9.0191e-006 -5.27751e-005 10.8651 -0.745307 -0.276177 -178.054 -12.6485 -81.1796 -2.48088 -51.4131 19.912 -16.5251 3.18055e-015 -1.59028e-015 -55.9755 -30.023 -46.5309 -179.879 11.1722 89.3744 58.9676 66.296 -76.8388 -8.69942 -1.59028e-015 3.18055e-015 -39.889 26.0223 38.2174 6.36629 4.9018 173.446 -14.2238 0 -0 12.9851 6.18088 -13.0354 90 -9.93923e-017 -0 10.8098 -3.62741 178.834 -5.81831 0 -1.39149e-015 13.0206 -3.91949 8.26789 90 8.44835e-016 -0 
465.155 86.4808 -124.712 49.2346 -79.7862 -35.2317 2.02587 -1.15609 -0.848319 4.03566 -2.34085 -1.65559 4.03566 -2.34085 -1.6556 -8.30669e-012 -9.0191e-006 -5.27751e-005 10.8747 -0.804436 -0.247491 -178.071 -12.5994 -81.2239 -2.37062 -51.3764 20.0114 -16.5564 0 3.18055e-015 -55.941 -30.055 -46.575 -179.876 11.1438 89.3599 58.4462 66.257 -76.3663 -8.75184 0 -0 -39.9967 26.2029 38.4684 6.37201 4.99232 173.456 -14.1996 -3.18055e-015 -3.97569e-016 12.9701 6.23254 -13.1461 90 -5.56597e-015 1.59028e-015 10.7871 -3.59295 178.821 -5.83392 0 9.93923e-017 12.9994 -3.93994 8.31055 90 -1.51573e-015 -0 
465.153 86.4843 -124.645 49.1306 -79.7818 -35.3398 2.02854 -1.1604 -0.840638 4.04098 -2.35589 -1.63992 4.04098 -2.35589 -1.63992 -8.30828e-012 -9.0191e-006 -5.27751e-005 10.8263 -0.850197 -0.242489 -178.078 -12.5446 -81.2171 -2.37669 -51.1414 19.935 -16.6306 -3.18055e-015 -0 -55.8951 -30.1016 -46.567 -179.883 11.118 89.3936 58.2034 66.1942 -76.184 -8.83933 1.59028e-015 -1.59028e-015 -39.9847 26.3806 38.562 6.32974 5.01029 173.457 -14.2312 0 -3.97569e-016 12.9419 6.25142 -13.1863 90 -2.26118e-015 -1.59028e-015 10.7276 -3.59968 178.814 -5.8904 -1.59028e-015 -9.93923e-017 13.0079 -3.93901 8.30834 90 1.21756e-015 3.18055e-015 
465.145 86.4857 -124.593 48.8458 -79.7716 -35.6222 2.04287 -1.16414 -0.836333 4.06983 -2.35677 -1.63099 4.06983 -2.35677 -1.631 -8.3051e-012 -9.0191e-006 -5.27751e-005 10.7272 -0.938515 -0.226822 -178.095 -12.4651 -81.2413 -2.32083 -51.0027 19.9262 -16.6915 3.18055e-015 -1.59028e-015 -55.8786 -30.1741 -46.6303 -179.877 11.0862 89.36 58.1292 66.2389 -76.0941 -8.80729 0 -4.77083e-015 -39.9363 26.2286 38.3999 6.33505 5.02946 173.456 -14.2462 1.59028e-015 -0 12.9145 6.23838 -13.1579 90 -4.02539e-015 -1.59028e-015 10.7054 -3.66477 178.796 -5.94724 1.59028e-015 -4.96962e-016 13.0605 -3.9799 8.39441 90 2.11209e-015 3.18055e-015 
465.148 86.4923 -124.541 48.6518 -79.7775 -35.8255 2.04182 -1.16576 -0.834012 4.06779 -2.35792 -1.62636 4.06779 -2.35792 -1.62637 -8.30987e-012 -9.0191e-006 -5.27751e-005 10.6878 -0.958979 -0.183177 -178.102 -12.4604 -81.2691 -2.35992 -50.953 19.9144 -16.6551 3.18055e-015 -4.77083e-015 -55.9194 -30.0915 -46.5759 -179.873 11.0489 89.3394 57.9175 66.193 -75.8771 -8.814 0 1.59028e-015 -40.0523 26.2864 38.5188 6.31664 5.0698 173.453 -14.2648 3.18055e-015 1.59028e-015 12.8863 6.23365 -13.1475 90 -1.21756e-015 1.59028e-015 10.6762 -3.59585 178.801 -5.97649 -7.95139e-016 -1.98785e-016 12.999 -3.95947 8.35113 90 -1.41634e-015 -0 
465.142 86.4985 -124.51 48.5589 -79.8245 -35.9205 2.01982 -1.16697 -0.831019 4.02393 -2.35915 -1.61824 4.02393 -2.35915 -1.61825 -8.30907e-012 -9.0191e-006 -5.27751e-005 10.8492 -0.956174 -0.136875 -178.099 -12.4675 -81.2595 -2.38118 -50.9698 19.9074 -16.6177 6.36111e-015 1.59028e-015 -55.938 -30.1181 -46.629 -179.876 10.9965 89.3502 57.9549 66.1899 -75.893 -8.7449 -3.18055e-015 -3.18055e-015 -39.9521 26.2321 38.3799 6.31304 5.12451 173.448 -14.2142 1.59028e-015 1.59028e-015 12.8964 6.25344 -13.1902 90 -2.98177e-016 -7.95139e-016 10.6363 -3.61433 178.786 -5.96592 -7.95139e-016 9.93923e-017 12.9967 -3.98886 8.41286 90 -7.95139e-016 1.59028e-015 
465.135 86.5007 -124.489 48.5275 -79.8366 -35.952 2.00438 -1.16793 -0.827856 3.99302 -2.36063 -1.61476 3.99301 -2.36063 -1.61476 -8.30669e-012 -9.0191e-006 -5.27751e-005 11.0025 -0.98828 -0.0824555 -178.111 -12.3738 -81.2518 -2.36414 -50.9091 19.8352 -16.6827 -3.18055e-015 1.59028e-015 -55.9255 -30.1936 -46.6368 -179.878 10.9743 89.3602 58.0248 66.138 -75.9545 -8.77569 0 -0 -39.9897 26.4029 38.5141 6.3172 5.1423 173.439 -14.1843 4.77083e-015 1.98785e-015 12.8809 6.25695 -13.1977 90 -1.2424e-016 -0 10.6444 -3.59154 178.774 -5.92099 -7.95139e-016 9.93923e-017 12.9692 -4.00294 8.44238 90 -1.73937e-016 -0 
465.132 86.5018 -124.474 48.2545 -79.8299 -36.2137 2.00517 -1.16884 -0.824513 3.99467 -2.36262 -1.60794 3.99467 -2.36262 -1.60795 -8.30907e-012 -9.0191e-006 -5.27751e-005 10.9767 -1.02765 -0.102388 -178.12 -12.3788 -81.2951 -2.36951 -50.8331 19.8688 -16.7224 0 -0 -55.9185 -30.1583 -46.6688 -179.877 10.9668 89.3543 57.856 66.1393 -75.8119 -8.76751 -1.59028e-015 -0 -40.0511 26.3869 38.5889 6.33532 5.13539 173.421 -14.2115 3.18055e-015 -0 12.8557 6.23161 -13.143 90 -2.48481e-016 -0 10.6582 -3.54814 178.762 -5.95411 -7.95139e-016 -7.95139e-016 12.9779 -3.98041 8.39503 90 -1.09332e-015 -0 
465.131 86.503 -124.458 47.9071 -79.7953 -36.5674 2.00693 -1.16984 -0.816587 3.99829 -2.3652 -1.59208 3.99829 -2.3652 -1.59209 -8.30629e-012 -9.0191e-006 -5.27751e-005 10.9469 -1.07219 -0.107044 -178.137 -12.358 -81.3592 -2.33025 -50.747 19.9696 -16.7415 0 -0 -55.9144 -30.1106 -46.5641 -179.875 10.9218 89.3401 57.5347 66.0966 -75.4275 -8.81586 1.59028e-015 3.18055e-015 -40.0822 26.4452 38.6383 6.37672 5.12115 173.431 -14.2414 0 3.97569e-016 12.8812 6.23065 -13.141 90 -2.48481e-015 7.95139e-016 10.6704 -3.51598 178.771 -6.04716 0 -3.97569e-016 13.0001 -3.96165 8.35543 90 1.9133e-015 -0 
465.131 86.504 -124.45 47.6181 -79.7636 -36.8439 1.99929 -1.17112 -0.809039 3.98312 -2.36917 -1.57707 3.98312 -2.36917 -1.57708 -8.30748e-012 -9.0191e-006 -5.27751e-005 11.0247 -1.05 -0.135994 -178.145 -12.2449 -81.3197 -2.32809 -50.544 19.8532 -16.7797 -3.18055e-015 -4.77083e-015 -55.9546 -30.2588 -46.8241 -179.877 10.9036 89.348 57.7025 66.1363 -75.5428 -8.77963 -1.59028e-015 1.59028e-015 -40.0299 26.3957 38.5985 6.42242 5.14005 173.424 -14.2583 -4.77083e-015 -1.59028e-015 12.876 6.22837 -13.148 90 -6.43565e-015 1.59028e-015 10.6915 -3.52407 178.764 -6.10492 -7.95139e-016 -0 13.0111 -3.95816 8.34806 90 4.47266e-015 1.59028e-015 
465.131 86.5047 -124.451 47.4258 -79.7562 -37.0276 1.98116 -1.17444 -0.806967 3.94687 -2.3755 -1.57319 3.94687 -2.3755 -1.5732 -8.30748e-012 -9.0191e-006 -5.27751e-005 11.1326 -0.965254 -0.0952741 -178.155 -12.2145 -81.3448 -2.29108 -50.5742 19.8715 -16.7008 3.18055e-015 1.59028e-015 -55.9846 -30.2456 -46.8236 -179.878 10.8599 89.3514 57.7012 66.0925 -75.4825 -8.78547 1.59028e-015 1.59028e-015 -40.0191 26.5524 38.694 6.47051 5.13832 173.413 -14.2356 1.59028e-015 -7.95139e-016 12.8353 6.22626 -13.1438 90 5.51627e-015 7.95139e-016 10.7116 -3.52816 178.755 -6.12699 -7.95139e-016 -3.97569e-016 13.0431 -3.96351 8.35949 90 1.16786e-015 -0 
465.137 86.5053 -124.453 47.3849 -79.7365 -37.059 1.9653 -1.1859 -0.802262 3.91508 -2.39804 -1.56373 3.91508 -2.39804 -1.56374 -8.30867e-012 -9.0191e-006 -5.27751e-005 11.1917 -1.00592 -0.0941155 -178.162 -12.1918 -81.3582 -2.20944 -50.6376 19.9127 -16.6548 -6.36111e-015 -1.59028e-015 -55.9301 -30.2182 -46.7647 -179.875 10.838 89.3381 57.6718 66.173 -75.4154 -8.63344 1.59028e-015 1.59028e-015 -39.9512 26.3185 38.518 6.47698 5.14898 173.41 -14.2589 1.59028e-015 7.95139e-016 12.8504 6.22559 -13.1298 90 3.23025e-016 7.95139e-016 10.7365 -3.50543 178.746 -6.11901 -7.95139e-016 -1.98785e-016 13.0109 -3.97144 8.37597 90 -3.72721e-016 1.59028e-015 
465.141 86.5059 -124.45 47.2633 -79.7218 -37.175 1.95748 -1.18464 -0.797204 3.89943 -2.40194 -1.55371 3.89943 -2.40194 -1.55372 -8.30788e-012 -9.0191e-006 -5.27751e-005 11.1724 -1.07205 -0.0623736 -178.174 -12.1451 -81.3838 -2.15475 -50.5484 19.9239 -16.686 6.36111e-015 3.18055e-015 -55.8303 -30.2881 -46.6641 -179.88 10.814 89.3608 57.4854 66.0825 -75.1945 -8.73203 -1.59028e-015 -0 -40.0602 26.6252 38.8315 6.50729 5.13423 173.408 -14.2413 -1.59028e-015 1.19271e-015 12.847 6.22845 -13.1361 90 2.28602e-015 7.95139e-016 10.7605 -3.52662 178.753 -6.1112 1.59028e-015 -2.98177e-016 13.0098 -3.94068 8.31141 90 1.71452e-015 1.59028e-015 
465.147 86.5066 -124.439 47.0113 -79.7241 -37.4232 1.95744 -1.18212 -0.786208 3.89976 -2.38924 -1.53192 3.89976 -2.38924 -1.53193 -8.30669e-012 -9.0191e-006 -5.27751e-005 11.0679 -1.17351 -0.0954943 -178.171 -12.0932 -81.3347 -2.24199 -50.3988 19.7846 -16.7302 -3.18055e-015 1.59028e-015 -55.8434 -30.3433 -46.7217 -179.888 10.8293 89.407 57.5353 66.0839 -75.2147 -8.71115 0 1.59028e-015 -40.0605 26.5525 38.7581 6.52478 5.13637 173.404 -14.2604 1.59028e-015 -3.97569e-016 12.8224 6.20917 -13.0943 90 1.41634e-015 -1.59028e-015 10.763 -3.47679 178.741 -6.16072 1.59028e-015 -8.94531e-016 13.0543 -3.9661 8.3649 90 -4.52235e-015 -0 
465.152 86.5076 -124.422 46.7457 -79.7128 -37.6744 1.97395 -1.18028 -0.789996 3.93272 -2.3865 -1.5392 3.93272 -2.3865 -1.53921 -8.30748e-012 -9.0191e-006 -5.27751e-005 10.8577 -1.20541 -0.109689 -178.189 -12.0601 -81.3947 -2.19115 -50.3729 19.8035 -16.7771 3.18055e-015 3.18055e-015 -55.858 -30.357 -46.7242 -179.877 10.7893 89.3434 57.2661 66.1204 -74.8643 -8.66613 3.18055e-015 -0 -40.0461 26.4229 38.6496 6.53674 5.11301 173.39 -14.2935 -4.77083e-015 -3.97569e-016 12.8208 6.1832 -13.0383 90 -8.94531e-016 -7.95139e-016 10.7663 -3.48096 178.729 -6.21007 0 -2.98177e-016 13.0747 -3.97013 8.37339 90 1.06847e-015 1.59028e-015 
465.163 86.5081 -124.396 46.6153 -79.7296 -37.802 1.97096 -1.17955 -0.78347 3.92702 -2.37782 -1.52635 3.92702 -2.37782 -1.52636 -8.30748e-012 -9.0191e-006 -5.27751e-005 10.7439 -1.22442 -0.134125 -178.188 -12.0322 -81.3711 -2.23638 -50.4136 19.7482 -16.6929 9.54166e-015 3.18055e-015 -55.8618 -30.2526 -46.6877 -179.885 10.7756 89.3866 57.3763 66.0762 -74.9329 -8.708 1.59028e-015 1.59028e-015 -40.0697 26.5041 38.7413 6.50674 5.16666 173.397 -14.3366 0 -3.97569e-016 12.8425 6.20376 -13.0824 90 4.19933e-015 7.95139e-016 10.7312 -3.44955 178.721 -6.2533 -7.95139e-016 2.98177e-016 13.0669 -3.98656 8.4077 90 3.97569e-016 1.59028e-015 
465.172 86.5084 -124.382 46.557 -79.7645 -37.8563 1.96229 -1.17903 -0.773846 3.90987 -2.37816 -1.50722 3.90987 -2.37816 -1.50723 -8.30788e-012 -9.0191e-006 -5.27751e-005 10.7715 -1.1441 -0.173374 -178.177 -12.0734 -81.3497 -2.19977 -50.5824 19.8327 -16.6478 3.18055e-015 -0 -55.8833 -30.2333 -46.6712 -179.891 10.7957 89.4178 57.4949 66.1213 -75.1001 -8.71808 1.59028e-015 -3.18055e-015 -40.0386 26.43 38.6835 6.50624 5.23598 173.397 -14.302 0 7.95139e-016 12.8038 6.21477 -13.1058 90 -8.44835e-016 7.95139e-016 10.7027 -3.52502 178.709 -6.24403 7.95139e-016 -5.96354e-016 13.1103 -4.03787 8.51592 90 1.83876e-015 -0 
